<?xml version="1.0" standalone="no"?>
<!DOCTYPE svg PUBLIC "-//W3C//DTD SVG 20010904//EN"
 "http://www.w3.org/TR/2001/REC-SVG-20010904/DTD/svg10.dtd">
<svg version="1.0" xmlns="http://www.w3.org/2000/svg"
 width="500.000000pt" height="500.000000pt" viewBox="0 0 500.000000 500.000000"
 preserveAspectRatio="xMidYMid meet">

<g transform="translate(0.000000,500.000000) scale(0.100000,-0.100000)"
fill="#000000" stroke="none">
<path d="M1501 4410 c-51 -22 -103 -104 -80 -127 11 -11 69 -5 69 7 0 5 13 15
29 23 28 14 30 13 35 -7 3 -12 0 -25 -7 -31 -27 -20 -49 -64 -42 -85 4 -13 -1
-29 -14 -46 -17 -21 -21 -41 -21 -94 0 -64 1 -68 25 -74 14 -4 25 -11 25 -16
0 -16 27 -12 45 7 12 12 19 13 24 5 5 -8 13 1 24 23 9 19 23 35 31 35 8 0 16
5 18 11 2 6 36 12 77 14 40 2 79 9 87 16 23 19 42 -5 20 -26 -9 -9 -16 -18
-16 -20 0 -2 24 -14 53 -28 28 -13 66 -37 82 -53 l30 -28 -38 -11 -38 -11 36
-17 c19 -9 67 -24 107 -32 75 -15 95 -26 84 -44 -14 -22 -77 -11 -149 26 -39
20 -74 37 -77 38 -61 11 -80 18 -80 25 0 6 4 10 10 10 5 0 7 6 4 14 -3 7 -22
16 -43 20 -42 6 -72 30 -49 39 9 3 10 8 2 16 -18 20 -72 1 -105 -37 -27 -30
-37 -35 -73 -34 -53 2 -97 -28 -77 -52 12 -14 10 -16 -10 -17 -22 0 -23 -1 -4
-9 13 -5 28 -3 42 6 12 8 34 14 48 14 28 0 87 38 79 51 -2 4 11 5 30 2 19 -3
36 -1 40 6 13 21 23 11 18 -19 -2 -16 -10 -35 -18 -41 -8 -6 -14 -18 -14 -27
0 -18 -29 -41 -53 -42 -9 0 -27 -11 -38 -24 -26 -29 -76 -40 -115 -25 -47 19
-94 28 -94 18 0 -5 -8 -9 -18 -9 -9 0 -35 -9 -56 -21 -50 -27 -67 -13 -36 31
17 24 21 39 16 63 -8 39 -28 87 -37 87 -4 0 -12 14 -19 31 -15 35 -32 26 -32
-16 0 -19 -8 -29 -24 -35 -13 -5 -24 -16 -24 -24 0 -7 -7 -19 -15 -26 -24 -20
-18 -40 26 -82 22 -22 39 -47 37 -56 -2 -9 -28 -29 -58 -44 -30 -15 -66 -43
-80 -62 -14 -19 -39 -48 -56 -64 -101 -101 -125 -131 -145 -185 -22 -57 -22
-59 -5 -113 11 -34 26 -60 42 -70 13 -9 24 -22 24 -29 0 -7 30 -27 68 -46 58
-28 81 -34 167 -39 109 -7 169 -28 224 -78 27 -26 63 -34 80 -18 14 12 23 11
68 -3 28 -9 55 -19 58 -23 4 -4 14 -4 22 -1 12 5 12 7 1 14 -8 6 -1 9 22 9 39
0 65 23 76 65 8 33 17 38 94 50 52 8 64 13 62 27 -1 9 6 19 16 22 25 8 92 69
92 83 0 16 -35 34 -53 27 -10 -4 -14 2 -13 18 1 21 -5 24 -54 30 -41 5 -59 3
-71 -8 -23 -21 -60 -17 -94 11 -29 24 -29 25 -11 40 18 14 16 16 -28 34 -25
11 -52 19 -59 17 -6 -3 -24 -7 -39 -10 -16 -4 -28 -11 -28 -17 0 -6 7 -6 21 2
17 9 25 7 42 -9 12 -11 31 -22 42 -25 18 -4 18 -5 -2 -6 -24 -1 -31 -15 -13
-26 14 -9 12 -25 -3 -25 -23 0 -94 -39 -100 -55 -7 -17 -40 -20 -68 -5 -25 14
-44 3 -28 -16 9 -11 8 -14 -4 -14 -8 0 -18 6 -21 13 -3 8 -8 7 -16 -5 -12 -19
-65 -25 -75 -9 -7 12 26 31 54 31 27 0 38 20 18 35 -21 15 -22 25 -2 25 8 0
15 4 15 9 0 5 9 11 20 14 21 5 28 27 10 27 -6 0 -22 -8 -36 -17 -22 -14 -27
-14 -35 -2 -11 18 -23 78 -17 85 3 2 25 8 49 12 40 7 44 11 49 39 4 26 14 37
53 58 56 29 85 32 94 9 6 -15 8 -15 20 2 7 10 13 24 13 31 0 8 9 26 20 41 11
15 29 52 39 82 l19 55 54 2 c92 3 222 20 253 32 17 7 84 15 150 17 84 4 125
10 136 20 21 19 41 18 70 -3 13 -10 40 -27 59 -37 19 -11 54 -39 78 -63 23
-24 46 -43 51 -43 5 0 4 -11 -2 -25 -7 -14 -15 -25 -19 -25 -5 0 -8 -11 -8
-25 0 -14 -3 -25 -7 -25 -5 0 -9 -18 -10 -41 -1 -40 -4 -43 -57 -81 -7 -5 -6
-11 4 -18 13 -9 13 -11 0 -20 -8 -5 -22 -10 -30 -10 -67 -2 -95 -111 -66 -260
14 -76 29 -84 95 -50 41 20 69 23 222 20 29 -1 50 5 58 14 8 10 22 13 40 10
15 -3 52 1 81 10 61 18 116 21 125 6 3 -5 16 -10 28 -9 12 0 16 3 9 6 -20 8
-3 22 22 17 13 -2 42 -12 65 -22 41 -19 45 -32 9 -32 -10 0 -18 -7 -18 -15 0
-8 6 -15 14 -15 7 0 19 -6 25 -14 16 -19 -4 -31 -41 -27 -20 2 -28 -2 -28 -14
0 -9 5 -13 10 -10 6 3 10 -1 10 -9 0 -9 -7 -16 -16 -16 -12 0 -15 -6 -11 -21
6 -21 3 -21 -49 -15 -34 4 -54 2 -54 -4 0 -5 4 -10 9 -10 5 0 26 -8 47 -17
l39 -16 -60 -12 c-33 -7 -50 -13 -37 -14 12 0 22 -5 22 -10 0 -14 90 -30 140
-25 37 4 41 3 22 -6 -13 -5 -29 -7 -35 -4 -8 5 -9 4 -2 -4 6 -5 19 -12 30 -14
16 -3 19 -11 17 -38 -3 -41 -21 -90 -33 -90 -4 0 -9 -15 -11 -32 -2 -26 -11
-37 -40 -53 -21 -11 -38 -24 -38 -28 0 -5 -14 -20 -31 -34 -24 -21 -29 -31
-24 -53 5 -22 1 -29 -20 -38 -15 -7 -25 -20 -25 -32 0 -13 -7 -20 -20 -20 -10
0 -24 -9 -30 -20 -6 -11 -20 -20 -30 -20 -11 0 -20 -4 -20 -10 0 -5 -8 -10
-19 -10 -11 0 -21 -9 -24 -22 -5 -18 -8 -19 -21 -9 -13 11 -17 10 -22 -3 -4
-10 -18 -16 -35 -16 -29 0 -40 -15 -16 -23 9 -3 9 -7 0 -19 -7 -8 -10 -18 -6
-21 3 -4 1 -7 -7 -7 -23 0 -3 -78 28 -105 16 -14 21 -24 13 -25 -11 0 -11 -3
-1 -15 7 -8 10 -15 6 -15 -4 0 0 -13 8 -28 8 -16 11 -34 7 -41 -4 -6 -5 -29
-2 -49 5 -28 11 -37 26 -37 47 -1 82 -26 52 -38 -15 -6 -14 -70 1 -75 17 -5
15 -22 -2 -22 -9 0 -12 -7 -9 -20 3 -13 -1 -22 -11 -26 -15 -6 -15 -7 1 -19
15 -11 15 -15 4 -29 -8 -9 -11 -26 -7 -41 4 -14 2 -25 -3 -25 -5 0 -11 -9 -14
-20 -3 -11 -12 -20 -19 -20 -22 0 -37 -41 -25 -67 13 -30 2 -57 -21 -49 -13 5
-11 2 4 -11 29 -24 38 -57 20 -72 -11 -10 -12 -19 -4 -42 5 -16 13 -29 17 -29
4 0 5 -15 3 -34 -3 -24 -10 -36 -24 -40 -18 -4 -20 -10 -15 -47 3 -24 1 -52
-5 -63 -8 -15 -7 -22 6 -31 22 -16 20 -47 -3 -72 -20 -21 -19 -21 6 -44 34
-33 53 -82 53 -141 0 -41 5 -54 29 -78 31 -31 19 -50 -16 -25 -19 15 -54 19
-88 9 -17 -4 -20 -12 -17 -41 l4 -35 46 5 c26 3 51 12 58 21 6 10 29 20 50 23
53 8 84 39 84 83 0 20 4 40 10 46 5 5 12 36 16 69 3 33 14 78 25 100 19 43 23
93 13 191 -8 82 5 117 69 187 38 41 65 61 93 68 21 6 70 26 108 45 38 19 74
34 81 34 7 0 37 14 68 30 31 16 66 30 77 30 11 0 20 5 20 10 0 6 7 10 15 10
27 0 234 108 272 141 10 9 34 25 53 34 39 20 76 47 121 87 16 16 33 28 37 29
9 0 56 53 162 179 52 62 84 109 91 135 6 22 14 54 19 70 16 58 21 151 12 261
-8 95 -14 119 -43 175 -18 35 -45 81 -61 102 -15 21 -37 60 -49 85 -12 26 -28
54 -35 62 -20 25 -69 122 -83 167 -8 23 -27 54 -42 69 -16 15 -29 34 -29 41 0
7 -4 13 -9 13 -5 0 -14 13 -21 30 -10 25 -47 60 -206 198 -18 15 -42 34 -54
42 -12 8 -28 20 -34 25 -12 12 -90 57 -146 86 -19 9 -44 26 -55 36 -11 10 -36
27 -55 37 -50 27 -168 123 -180 146 -6 11 -17 20 -25 20 -10 0 -15 10 -15 29
0 26 -13 46 -76 112 -13 14 -24 31 -24 37 0 6 -22 31 -48 56 -26 25 -58 66
-71 91 -21 42 -49 79 -139 181 -44 51 -135 56 -427 21 -71 -9 -173 -18 -225
-22 -52 -3 -112 -11 -134 -16 -57 -15 -139 -20 -156 -9 -13 8 -13 10 0 10 11
0 11 3 -3 17 -14 15 -21 15 -37 5 -24 -14 -50 -16 -50 -2 0 5 -11 12 -25 16
-14 3 -25 10 -25 16 0 27 -163 57 -209 38z m103 -75 c-4 -8 -11 -12 -16 -9 -6
4 -5 10 3 15 19 12 19 11 13 -6z m916 -5 c-20 -13 -33 -13 -25 0 3 6 14 10 23
10 15 0 15 -2 2 -10z m230 -240 c0 -23 -53 -52 -78 -43 -22 9 -9 46 18 54 46
13 60 10 60 -11z m-17 -100 c-7 -26 -15 -31 -33 -20 -11 7 -11 11 -1 24 19 23
40 20 34 -4z m-983 -4 c0 -3 -4 -8 -10 -11 -5 -3 -10 -1 -10 4 0 6 5 11 10 11
6 0 10 -2 10 -4z m1130 -2216 c0 -5 -9 -10 -20 -10 -11 0 -20 5 -20 10 0 6 9
10 20 10 11 0 20 -4 20 -10z"/>
<path d="M1495 3319 c-4 -6 -5 -13 -2 -16 8 -7 47 7 47 18 0 13 -37 11 -45 -2z"/>
<path d="M1496 3265 c4 -9 11 -14 16 -13 15 5 11 23 -6 26 -11 2 -14 -2 -10
-13z"/>
<path d="M1436 3239 c3 -5 12 -9 21 -9 19 0 9 13 -12 16 -8 1 -13 -2 -9 -7z"/>
<path d="M2237 3163 c-5 -48 5 -76 21 -57 10 11 3 104 -8 104 -4 0 -10 -21
-13 -47z"/>
<path d="M1444 2235 c-23 -55 -6 -195 23 -195 8 0 11 5 8 11 -17 27 -22 138
-7 148 10 7 10 56 0 67 -4 4 -15 -10 -24 -31z"/>
<path d="M1942 2030 c-6 -11 -12 -24 -12 -30 0 -5 -11 -33 -24 -62 -13 -29
-29 -69 -34 -88 -11 -39 -52 -147 -75 -200 -18 -41 -64 -87 -92 -92 -15 -2
-20 -12 -21 -39 -1 -19 -8 -46 -16 -60 -9 -13 -19 -35 -23 -48 -6 -18 -4 -22
6 -15 8 5 53 7 101 6 l86 -3 18 30 c10 17 21 31 25 31 8 0 60 52 134 134 58
65 110 105 140 110 8 1 18 5 21 9 4 4 14 7 23 7 9 0 29 7 44 15 28 14 138 38
154 33 4 -2 10 1 13 7 3 5 -17 13 -43 18 -66 11 -100 34 -94 64 5 25 -25 53
-70 67 -13 4 -23 14 -23 22 0 8 -4 14 -10 14 -5 0 -10 7 -10 15 0 22 -44 61
-64 57 -10 -2 -23 1 -29 7 -6 6 -34 11 -62 11 -39 0 -53 -4 -63 -20z"/>
<path d="M2260 2001 c-17 -5 -21 -9 -12 -15 6 -4 12 -16 12 -26 0 -12 12 -22
35 -30 31 -10 39 -9 65 10 34 24 34 28 0 35 -13 2 -30 11 -40 20 -18 16 -22
17 -60 6z"/>
<path d="M2458 1985 c-15 -14 -34 -22 -42 -19 -8 3 3 -13 24 -35 22 -23 44
-41 49 -41 15 0 61 -52 55 -62 -8 -13 6 -49 17 -43 29 18 -5 195 -37 195 -8 0
-17 7 -20 15 -8 20 -15 19 -46 -10z"/>
<path d="M2488 1843 c6 -2 18 -2 25 0 6 3 1 5 -13 5 -14 0 -19 -2 -12 -5z"/>
<path d="M1250 1787 c-14 -6 -27 -14 -30 -18 -3 -3 -24 -14 -47 -24 -24 -11
-43 -22 -43 -26 0 -4 -22 -15 -50 -24 -27 -9 -50 -20 -50 -24 0 -4 -11 -13
-25 -19 -26 -12 -59 -6 -49 9 14 24 -63 -4 -89 -32 -24 -25 -63 -25 -70 1 -8
33 -97 23 -97 -11 0 -30 32 -39 162 -41 99 -1 129 1 153 15 17 9 38 17 48 17
9 0 17 4 17 9 0 5 29 13 65 16 36 4 68 11 71 16 3 5 28 9 55 9 30 0 65 8 89
20 22 11 48 20 59 20 24 0 27 4 36 58 l7 43 -29 -7 c-15 -4 -32 -9 -38 -13
-14 -7 -58 -1 -69 10 -13 12 -45 10 -76 -4z"/>
<path d="M2555 1760 c3 -5 10 -10 16 -10 5 0 9 5 9 10 0 6 -7 10 -16 10 -8 0
-12 -4 -9 -10z"/>
<path d="M1435 1550 c-3 -5 -1 -10 4 -10 6 0 11 5 11 10 0 6 -2 10 -4 10 -3 0
-8 -4 -11 -10z"/>
<path d="M1345 1475 c-42 -20 -111 -42 -255 -84 -18 -5 -24 -12 -20 -26 2 -11
4 -37 5 -58 0 -36 1 -37 30 -31 36 7 75 31 75 44 0 6 5 10 10 10 19 0 130 82
130 96 0 8 8 14 18 14 24 0 55 23 58 44 1 9 2 16 1 15 -1 0 -24 -11 -52 -24z
m-195 -135 c0 -5 -11 -10 -25 -10 -14 0 -25 5 -25 10 0 6 11 10 25 10 14 0 25
-4 25 -10z"/>
<path d="M2540 1443 c-8 -4 -30 -17 -48 -31 -39 -29 -32 -43 30 -61 24 -7 51
-15 61 -17 14 -4 17 1 17 30 0 41 -18 86 -34 85 -6 0 -18 -3 -26 -6z"/>
<path d="M721 1328 c-30 -32 -41 -80 -22 -93 5 -3 20 -1 33 5 13 5 42 14 66
20 56 14 62 33 23 70 -40 38 -63 38 -100 -2z"/>
<path d="M915 1350 c-3 -5 1 -10 9 -10 9 0 19 0 23 -1 4 0 9 4 11 10 5 14 -35
14 -43 1z"/>
<path d="M930 1210 c0 -5 7 -7 15 -4 8 4 15 8 15 10 0 2 -7 4 -15 4 -8 0 -15
-4 -15 -10z"/>
<path d="M722 1194 c2 -11 11 -20 22 -22 13 -3 17 1 14 14 -2 11 -11 20 -22
22 -13 3 -17 -1 -14 -14z"/>
<path d="M837 1113 c-9 -9 -9 -43 1 -44 4 0 19 -3 35 -5 32 -5 33 2 8 34 -20
23 -33 27 -44 15z"/>
<path d="M1070 1103 c-8 -3 -25 -16 -37 -27 -20 -21 -21 -23 -4 -33 11 -7 23
-8 32 -2 8 5 36 9 62 9 l48 0 -31 30 c-31 30 -42 33 -70 23z"/>
<path d="M2411 671 c-12 -21 -6 -28 49 -53 82 -37 160 -50 160 -25 0 6 -3 23
-7 35 -6 25 -21 26 -80 7 -18 -6 -25 -2 -32 18 -15 40 -73 52 -90 18z"/>
</g>
</svg>
